<svg width="37" height="47" viewBox="0 0 37 47" fill="none" xmlns="http://www.w3.org/2000/svg">
<circle cx="18.5" cy="18.5" r="18.5" fill="#FFF5E5"/>
<path d="M29.006 16.4545V22.8182H10.1538V16.4545H29.006ZM14.4691 47V14.2472C14.4691 12.0331 14.9 10.197 15.7617 8.73863C16.6367 7.2803 17.8299 6.18655 19.3413 5.45738C20.8526 4.72822 22.5695 4.36363 24.4918 4.36363C25.7911 4.36363 26.9776 4.46307 28.0515 4.66193C29.1386 4.86079 29.9473 5.03977 30.4776 5.19886L28.9663 11.5625C28.6348 11.4564 28.2238 11.357 27.7333 11.2642C27.256 11.1714 26.7655 11.125 26.2617 11.125C25.0155 11.125 24.1471 11.4167 23.6566 12C23.1661 12.5701 22.9208 13.3722 22.9208 14.4062V47H14.4691Z" fill="#576F72"/>
</svg>
