<svg width="680" height="680" viewBox="0 0 680 680" fill="none" xmlns="http://www.w3.org/2000/svg">
<path d="M340.107 0.0443519C435.77 0.0443519 531.441 0.00331711 627.104 0.0717181C657.214 0.0922384 679.962 19.1214 679.97 44.1356C679.999 195.651 680.044 347.159 679.896 498.674C679.881 515.59 670.604 528.552 652.775 537.088C587.236 568.45 521.683 599.798 456.152 631.16C427.795 644.731 399.195 657.98 371.201 672.057C350.575 682.433 331.03 682.686 310.101 672.563C230.603 634.115 150.815 596.07 71.1319 557.882C56.9574 551.09 42.8199 544.236 28.564 537.567C9.46242 528.627 0.059618 515.008 0.0522201 496.985C-0.00696369 347.309 -0.0143906 197.628 0.0225993 47.9524C0.0299972 23.759 13.842 7.27433 38.751 1.80909C44.0183 0.653112 49.6334 0.0853841 55.0931 0.078544C150.098 -0.0240575 245.102 0.00331294 340.107 0.00331294C340.107 0.0169931 340.107 0.0306717 340.107 0.0443519ZM340.329 5.44118C244.666 5.44118 149.003 5.40015 53.3324 5.46855C25.9155 5.48907 6.68817 21.276 6.68077 43.8689C6.62159 195.562 6.64377 347.248 6.71775 498.941C6.72515 513.77 14.7446 524.906 30.2951 532.348C125.544 577.923 220.793 623.492 315.975 669.157C332.006 676.852 347.742 677.043 363.758 669.369C458.785 623.834 553.798 578.279 648.906 532.861C665.714 524.831 673.556 513.018 673.556 497.128C673.489 346.536 673.504 195.952 673.452 45.36C673.445 20.8177 654.861 5.44802 625.328 5.44118C530.331 5.42066 435.327 5.4275 340.329 5.44118Z" fill="black"/>
<path d="M340.047 21.1603C429.304 21.1603 518.553 21.1466 607.809 21.1671C636.617 21.174 657.487 38.2879 657.494 62.0162C657.538 204.174 657.546 346.332 657.494 488.49C657.487 504.03 649.578 516.247 633.28 524.127C543.61 567.472 453.887 610.736 364.12 653.945C348.503 661.462 332.264 661.66 316.669 654.218C263.175 628.657 209.88 602.808 156.518 577.062C121.134 559.989 85.8825 542.725 50.3205 525.919C31.3077 516.931 22.4672 503.839 22.482 485.795C22.6225 345.107 22.5707 204.413 22.5781 63.7262C22.5781 38.0964 42.8781 21.1398 73.6241 21.1398C162.437 21.1329 251.249 21.1398 340.055 21.1398C340.047 21.1466 340.047 21.1534 340.047 21.1603ZM340.04 26.9128C251.908 26.9128 163.783 26.8991 75.6511 26.9538C70.5983 26.9607 65.3532 26.9812 60.5223 28.0277C41.0804 32.2481 29.4878 45.641 29.4878 63.3569C29.4582 203.285 29.6062 343.213 29.2363 483.134C29.1919 501.028 37.3889 513.189 56.1353 522.136C142.61 563.437 228.826 605.1 314.901 646.961C332.228 655.388 348.141 655.436 365.37 646.934C405.682 627.036 446.4 607.719 486.949 588.15C534.177 565.352 581.391 542.526 628.62 519.722C643.023 512.765 650.725 502.389 650.732 488.579C650.799 346.817 650.784 205.05 650.717 63.2885C650.71 41.1813 633.192 26.9265 606.433 26.9265C517.628 26.9128 428.838 26.9196 340.04 26.9128Z" fill="black"/>
<path d="M328.089 256.507C321.224 259.291 314.951 261.945 308.566 264.407C291.24 271.097 268.75 272.992 251.883 252.594C243.664 255.884 235.482 259.373 227.092 262.465C212.592 267.807 197.389 269.66 181.706 267.362C177.459 266.74 173.021 265.522 169.44 263.593C164.846 261.117 161.28 261.5 156.619 263.422C147.357 267.239 137.754 270.509 128.174 273.758C125.814 274.558 122.958 274.763 120.377 274.626C104.686 273.765 97.295 265.112 102.651 252.56C105.314 246.322 109.945 240.467 114.776 235.111C125.193 223.544 135.905 212.122 147.29 201.212C154.333 194.46 162.168 187.99 170.86 182.798C178.835 178.03 184.325 172.545 188.926 165.349C202.442 144.186 224.584 134.055 253.274 134.541C260.62 134.664 264.659 133.043 268.728 127.913C284.523 107.988 306.68 96.4828 335.657 93.4048C355.61 91.2843 375.244 89.6017 394.508 95.6551C399.783 97.3104 405.657 99.3078 409.245 102.639C415.208 108.179 422.576 109.965 430.529 112.065C446.731 116.353 463.132 120.786 476.478 129.992C487.375 137.51 495.01 146.929 498.043 158.796C498.709 161.395 501.934 164.015 504.79 165.677C512.543 170.185 521.014 173.858 528.678 178.455C539.479 184.939 545.175 193.523 542.645 205.104C542.268 206.841 543.614 209.372 545.168 210.781C552.337 217.279 560.489 223.093 567.044 229.967C571.986 235.145 577.112 241.24 578.533 247.492C581.78 261.822 566.215 274.667 548.112 273.641C541.794 273.279 535.114 272.451 529.432 270.31C520.4 266.904 512.099 268.21 504.967 272.349C493.7 278.888 482.426 277.663 470.796 274.387C465.803 272.978 461.275 270.461 456.304 268.983C452.449 267.841 447.981 266.446 444.23 267.054C432.253 268.983 421.429 265.939 410.54 262.93C403.845 261.083 397.312 258.812 390.802 256.555C387.414 255.378 384.987 255.912 382.746 258.279C381.251 259.852 379.342 261.165 377.582 262.56C363.785 273.505 345.763 272.54 333.135 260.276C331.574 258.764 329.569 257.601 328.089 256.507ZM409.164 243.388L409.038 243.292C406.856 246.295 404.681 249.291 402.395 252.437C407.388 255.693 412.056 255.748 416.31 251.65C418.618 249.434 420.926 247.177 422.835 244.721C427.673 238.511 432.29 232.177 436.987 225.891C434.983 237.799 424.455 245.727 417.065 255.604C420.386 256.151 423.982 256.794 425.846 255.59C429.774 253.066 433 249.701 436.151 246.445C441.87 240.542 447.33 234.461 452.893 228.449C448.107 239.94 438.497 248.401 427.481 256.295C431.727 259.161 435.567 259.9 439.325 256.439C442.706 253.326 446.183 250.241 449.15 246.862C453.344 242.095 457.11 237.074 461.06 232.156C459.566 244.12 446.93 250.46 440.391 261.274C443.786 260.72 446.612 260.953 448.092 259.893C453.004 256.37 458.56 252.95 461.859 248.477C480.502 223.175 492.435 196.034 492.605 165.917C492.642 159.241 489.876 153.488 485.511 147.968C484.408 155.417 485.163 162.763 484.194 169.959C483.262 176.854 481.989 184.05 475.967 190.103C475.094 189.057 474.613 188.735 474.665 188.489C474.88 187.422 475.109 186.328 475.59 185.322C480.687 174.672 481.886 163.577 480.717 152.298C479.718 142.715 476.744 133.939 463.124 129.562C464.086 136.805 465.122 143.269 465.751 149.767C466.38 156.293 464.811 162.456 460.543 167.996C459.758 167.148 459.455 166.368 459.692 165.732C463.753 154.843 462.385 143.987 459.196 133.207C457.517 127.523 453.677 123.371 445.48 122.94C446.168 127.126 447.056 131.053 447.396 135.006C447.744 139.028 447.722 143.084 447.552 147.113C447.389 150.841 446.812 154.562 446.412 158.283C445.828 158.228 445.244 158.174 444.652 158.119C444.652 154.651 444.985 151.163 444.585 147.729C443.697 140.109 442.736 132.482 441.227 124.938C440.206 119.842 435.249 118.412 430.189 117.831C430.758 124.137 431.809 130.095 431.668 136.032C431.565 140.362 429.649 144.644 428.983 148.994C426.601 164.46 424.196 179.932 422.199 195.432C419.632 215.425 410.606 233.305 397.386 249.92C396.979 250.433 397.009 251.192 396.839 251.835C399.376 251.65 400.9 250.741 402.187 249.64C404.584 247.622 406.848 245.488 409.164 243.388ZM355.943 185.158C356.475 185.083 357.008 185.007 357.541 184.932C358.11 185.616 359.124 186.273 359.183 186.991C360.959 208.476 356.12 229.208 348.67 249.674C360.433 228.428 371.072 206.95 371.9 183.044C373.905 197.08 371.123 210.48 365.168 223.503C359.279 236.383 353.376 249.263 347.479 262.136C348.249 262.396 349.018 262.663 349.788 262.923C371.234 236.91 387.562 209.071 392.496 177.121C392.681 209.379 372.877 235.877 356.231 263.354C387.858 240.953 396.669 209.652 404.784 178.037C402.446 208.955 390.913 236.992 367.195 261.404C368.749 261.213 369.94 260.85 370.761 260.173C381.606 251.179 392.178 241.739 397.164 229.564C402.757 215.904 407.477 201.916 411.072 187.805C416.281 167.326 419.432 146.545 418.825 125.505C418.618 118.275 411.302 109.322 404.185 107.653C405.494 113.207 406.789 118.713 408.091 124.219C402.52 115.054 402.69 101.962 382.457 103.186C389.729 112.94 393.28 123.016 393.539 134.938C389.833 125.772 387.036 117.571 383.204 109.718C379.165 101.435 374.556 100.17 363.807 103.22C366.892 108.432 370.613 113.433 372.854 118.857C375.081 124.247 375.828 130.061 377.227 135.69C371.693 126.025 367.439 116.292 362.105 106.989C358.82 101.257 345.992 100.217 339.623 104.417C352.051 117.673 359.738 131.422 358.236 139.179C357.045 136.771 356.379 135.143 355.469 133.611C350.882 125.902 347.006 117.817 341.421 110.635C334.363 101.558 322.615 100.662 312.258 106.846C318.28 110.984 326.232 114.294 330.272 119.643C340.074 132.599 339.845 134.213 338.121 138.139C335.147 133.002 332.454 127.81 329.221 122.872C324.006 114.91 315.283 110.245 304.867 109.568C300.332 109.274 294.636 112.434 290.87 115.293C286.838 118.357 291.033 121.819 293.385 124.472C297.432 129.049 302.418 133.07 306.31 137.729C311.681 144.151 318.243 150.465 321.032 157.688C327.15 173.537 332.587 189.754 335.68 206.157C338.188 219.447 336.775 233.237 337.292 246.794C337.426 250.194 338.299 253.573 338.831 256.965C339.556 256.931 340.281 256.89 340.999 256.856C351.763 233.88 358.332 210.22 355.943 185.158ZM230.14 143.091C239.343 149.569 248.546 156.046 257.757 162.531C257.158 163.153 256.558 163.783 255.967 164.405C253.814 163.064 251.617 161.772 249.508 160.376C243.309 156.272 237.449 151.765 230.895 148.105C223.482 143.967 217.638 145.41 211.616 152.394C224.17 153.536 231.124 160.958 238.678 167.818C228.306 162.893 219.998 154.74 205.098 154.658C207.747 156.58 209.433 157.633 210.869 158.885C220.575 167.394 231.28 175.294 239.676 184.624C254.561 201.171 261.308 220.549 264.178 240.932C265.014 246.862 265.946 252.93 273.411 257.259C272.819 247.786 272.22 238.319 271.628 228.846C272.316 228.832 273.011 228.818 273.699 228.805C274.602 237.724 275.593 246.644 276.363 255.577C276.644 258.833 277.998 260.488 282.296 260.741C286.875 261.015 287.696 258.621 287.793 256.049C288 250.392 287.918 244.715 287.563 239.065C287.238 233.969 286.387 228.9 285.766 223.825C286.476 223.77 287.179 223.716 287.889 223.668C289.62 236.055 291.344 248.442 293.104 261.062C296.544 260.098 302.855 262.69 301.908 256.548C299.689 242.047 296.981 227.594 294.369 213.134C293.963 210.904 293.016 208.736 292.32 206.54C292.919 206.431 293.519 206.321 294.125 206.212C304.076 222.566 302.847 240.994 307.345 258.525C315.794 249.523 311.355 239.386 310.601 229.906C309.816 220.159 306.739 210.541 304.49 200.097C305.792 201.642 306.805 202.559 307.427 203.626C316.822 219.782 313.893 237.279 315.905 254.852C319.382 252.54 324.168 249.79 324.161 247.054C324.109 225.535 317.666 204.885 308.966 184.802C304.963 175.561 300.206 166.354 291.284 159.241C286.979 155.814 283.48 151.635 278.915 148.502C272.242 143.912 265.229 139.404 254.679 139.336C260.975 146.477 270.792 149.986 274.787 158.187C273.441 158.105 272.871 158.215 272.627 158.03C266.716 153.604 261.019 148.967 254.901 144.747C247.733 139.808 236.539 136.812 230.14 143.091ZM177.252 247.649C177.814 247.334 178.384 247.013 178.946 246.698C181.277 249.311 183.245 252.239 186.041 254.441C188.482 256.37 191.856 257.485 194.822 258.956C194.615 256.138 195.066 253.142 194.053 250.542C192.485 246.514 189.925 242.752 187.78 238.88C188.593 238.552 189.4 238.223 190.213 237.902C194.171 244.626 198.129 251.35 202.161 258.203C210.144 258.333 211.779 257.082 209.411 250.809C206.918 244.195 203.456 237.833 199.994 230.474C210.247 237.232 210.499 247.499 215.241 255.584C226.027 254.277 227.521 252.41 224.296 244.4C223.179 241.623 221.647 238.962 220.316 236.24C219.31 234.181 218.333 232.108 217.349 230.043C218.17 229.769 218.992 229.489 219.813 229.215C223.526 236.465 227.24 243.716 230.969 250.994C239.44 250.453 240.009 250.098 238.404 243.121C236.902 236.568 234.771 230.118 232.914 223.62C241.074 230.159 240.275 239.557 243.138 247.745C251.076 246.561 251.506 246.37 249.752 240.467C246.956 231.048 244.285 221.554 240.475 212.402C234.912 199.05 223.719 188.639 212.592 177.497C211.534 179.357 210.898 180.486 210.195 181.71C198.181 173.92 198.181 173.92 192.618 178.133C195.755 180.903 198.891 183.68 202.028 186.451C201.377 187.018 200.726 187.579 200.075 188.147C198.24 186.799 196.361 185.493 194.571 184.104C187.417 178.564 183.274 179.118 178.317 186.163C182.187 188.639 186.048 191.102 189.903 193.571C189.459 194.125 189.022 194.679 188.578 195.226C185.752 193.858 182.919 192.497 180.1 191.122C172.525 187.422 170.069 187.942 164.883 194.351C169.122 196.615 173.361 198.879 177.6 201.143C177.112 201.82 176.616 202.498 176.128 203.175C173.894 202.142 171.571 201.218 169.433 200.062C162.168 196.15 160.437 196.526 156.124 203.592C159.593 205.247 163.107 206.923 166.621 208.599C166.481 209.057 166.333 209.509 166.192 209.967C162.249 209.167 158.306 208.359 154.296 207.546C146.795 220.761 165.741 255.255 182.83 257.95C180.892 254.359 179.072 251.008 177.252 247.649ZM493.264 268.033C494.115 268.033 494.743 268.149 495.276 268.012C503.939 265.823 508.541 260.276 513.253 254.257C525.667 238.401 533.191 221.212 536.327 202.58C537.533 195.411 535.21 189.481 527.435 183.879C527.686 196.314 531.06 208.189 520.555 218.599C520.318 217.464 520.118 217.115 520.2 216.814C520.4 216.102 520.636 215.377 521.006 214.721C527.05 203.907 525.563 192.894 521.99 181.916C521.406 180.13 519.223 178.701 517.204 176.471C514.962 189.091 512.987 200.179 511.019 211.267C510.235 211.164 509.443 211.054 508.659 210.952C508.91 209.727 509.288 208.503 509.391 207.272C510.198 198.147 511.381 189.023 511.463 179.891C511.485 177.114 508.415 174.316 506.765 171.526C506.04 171.772 505.322 172.018 504.597 172.257C503.902 182.169 503.199 192.08 502.504 201.991C501.683 201.964 500.861 201.937 500.033 201.909C500.033 191.56 500.033 181.204 500.033 170.855C499.404 170.821 498.783 170.787 498.154 170.759C496.467 187.039 494.322 203.291 485.792 218.202C477.44 232.813 468.34 247.136 459.551 261.61C464.153 263.662 465.211 263.429 467.408 259.072C468.177 257.553 468.629 255.919 469.42 254.407C472.498 248.566 475.664 242.752 478.793 236.924C479.415 237.156 480.029 237.382 480.65 237.615C476.655 246.363 472.653 255.112 468.695 263.792C473.593 266.357 476.752 265.851 479.289 262.171C481.923 258.354 485.022 254.756 487.693 250.946C491.755 245.146 495.609 239.249 499.552 233.394C500.203 233.668 500.854 233.935 501.498 234.208C494.743 244.92 487.989 255.631 481.227 266.35C498.487 263.607 501.934 249.94 511.418 241.171C511.958 241.452 512.498 241.732 513.039 242.02C506.521 250.611 499.989 259.202 493.264 268.033ZM547.839 266.316C557.952 266.562 563.515 263.826 566.918 257.253C571.083 249.209 570.21 243.832 563.604 238.634C562.043 243.039 564.195 248.347 558.884 251.623C558.654 244.872 562.346 237.95 556.139 231.199C554.563 236.821 553.187 241.719 551.811 246.616C551.138 246.527 550.457 246.438 549.784 246.349C549.37 238.155 557.559 229.119 546.892 221.458C545.027 227.703 543.289 233.511 541.55 239.325C540.944 239.208 540.337 239.092 539.73 238.969C540.855 231.725 541.987 224.475 543.111 217.231C542.653 217.258 542.194 217.279 541.735 217.306C534.33 231.329 526.924 245.344 519.238 259.893C523.425 260.707 528.352 261.664 533.257 262.622C534.093 259.906 534.7 257.943 535.506 255.33C538.155 258.942 533.257 264.236 540.056 264.975C542.009 265.187 544.435 262.342 546.847 260.775C547.106 262.259 547.447 264.134 547.839 266.316ZM124.749 261.582C125.171 261.316 125.592 261.049 126.014 260.789C127.316 261.938 128.426 263.313 129.964 264.161C131.511 265.009 133.486 265.331 135.269 265.885C135.646 264.25 136.349 262.608 136.29 260.98C136.238 259.633 135.291 258.306 134.736 256.972C135.254 256.815 135.779 256.657 136.297 256.5C138.043 258.668 139.789 260.837 141.402 262.834C147.912 261.692 148.755 259.038 145.522 254.893C144.501 253.586 144.146 251.917 143.48 250.412C144.05 250.228 144.62 250.043 145.189 249.858C147.29 252.889 149.384 255.919 151.574 259.072C157.085 256.931 157.892 254.113 155.103 250.447C153.335 248.121 151.152 245.987 149.665 243.545C145.959 237.457 142.548 231.246 139.019 225.084C138.405 225.09 137.784 225.104 137.17 225.111C136.77 227.724 136.371 230.337 135.927 233.271C134.448 232.642 132.894 231.978 129.957 230.727C128.936 234.475 128.085 237.594 127.242 240.693C116.212 239.113 118.956 245.152 120.991 251.055C119.504 250.371 118.838 249.988 118.105 249.749C117.38 249.516 116.589 249.441 115.797 249.284C113.482 261.705 116.522 266.391 126.776 266.138C126.073 264.571 125.415 263.073 124.749 261.582ZM325.589 190.445C322.156 166.703 312.546 145.588 290.67 129.281C284.863 124.951 282.34 124.678 275.823 130.54C302.063 144.931 313.863 167.681 325.589 190.445ZM256.558 242.266C257.446 242.068 258.334 241.876 259.222 241.678C256.447 232.71 254.317 223.565 250.751 214.817C243.716 197.532 232.633 182.203 215.803 170.123C214.597 169.255 212.163 169.562 210.306 169.323C210.883 170.609 211.031 172.285 212.111 173.119C226.131 183.879 236.732 196.526 243.279 211.424C247.792 221.67 252.142 231.978 256.558 242.266ZM417.546 182.825C412.278 206.499 406.478 229.954 389.197 250.187C404.377 244.947 420.978 205.015 417.546 182.825ZM268.75 135.711C303.129 153.666 315.646 182.374 324.509 212.915C327.424 191.861 292.365 137.099 268.75 135.711ZM159.919 250.46C155.117 240.494 150.316 230.535 145.574 220.699C140.847 224.167 147.971 239.496 159.919 250.46ZM424.137 147.38C430.736 137.229 430.292 128.358 424.137 118.515C424.137 128.419 424.137 137.277 424.137 147.38Z" fill="black"/>
<path d="M591.259 370.846C576.456 388.378 572.498 409.199 562.237 429.384C573.999 426.716 582.729 422.263 588.966 415.334C595.002 408.624 599.774 401.127 605.974 394.486C599.441 408.05 593.131 422.407 575.56 428.467C562.621 432.934 554.706 440.171 547.907 449.692C540.746 459.72 531.099 468.119 518.507 473.831C510.466 477.484 501.84 478.735 492.829 477.832C482.102 476.758 477.552 470.739 480.622 462.141C483.034 455.404 488.109 449.973 495.685 447.51C510.029 442.845 524.714 438.741 539.577 435.41C546.531 433.851 550.94 431.402 553.307 425.875C556.925 417.427 560.839 409.069 563.443 400.129C561.097 403.18 558.989 406.381 556.341 409.247C552.316 413.597 548.514 418.31 543.49 421.73C539.865 424.199 534.465 425.854 529.752 426.039C521.378 426.368 518.271 421.976 518.315 412.058C514.557 415.615 511.095 419.384 507.018 422.626C502.838 425.943 497.741 427.852 491.889 425.458C485.897 423.009 485.076 418.426 485.993 413.672C486.689 410.095 487.917 406.497 489.663 403.186C491.875 399 494.797 395.067 497.519 391.079C502.979 383.083 500.937 379.91 490.01 378.952C486.163 378.617 484.669 379.889 483.271 382.68C478.95 391.312 474.46 399.903 469.481 408.282C467.165 412.181 463.969 415.841 460.478 419.103C453.731 425.41 445.105 428.378 434.866 426.792C425.197 425.294 421.135 419.5 419.759 410.97C417.355 413.672 416.008 416.025 413.804 417.496C408.566 420.978 403.432 425.246 397.329 426.983C388.089 429.617 380.498 426.279 376.511 419.951C371.761 412.407 372.664 402.099 378.959 397.29C380.728 395.943 383.798 395.84 386.01 394.794C391.617 392.133 397.336 389.54 402.426 386.298C403.854 385.388 404.416 381.496 403.314 380.429C401.878 379.041 398.231 378.35 395.834 378.719C392.483 379.232 389.124 380.641 386.261 382.269C367.885 392.728 356.174 406.401 357.106 426.087C352.556 426.087 348.48 426.087 342.917 426.087C345.839 419.185 348.502 412.899 351.165 406.613C350.995 406.49 350.825 406.36 350.647 406.237C348.717 408.836 347.045 411.593 344.803 413.994C341.578 417.448 338.493 421.299 334.291 423.734C331.095 425.588 325.376 427.031 322.395 425.854C319.051 424.527 316.876 420.239 315.433 416.873C314.427 414.527 315.515 411.566 315.714 408.077C312.333 411.675 309.729 414.828 306.644 417.626C303.833 420.177 300.815 422.735 297.345 424.603C288.889 429.158 280.574 426.217 279.227 417.893C278.48 413.296 278.68 408.207 280.285 403.795C285.841 388.46 295.555 375.614 314.982 370.012C322.735 367.775 330.762 367.378 337.827 371.701C339.758 372.885 340.638 375.258 342.473 377.721C340.024 377.81 339.403 377.987 339.203 377.816C331.05 370.976 326.404 370.552 317.223 376.701C303.123 386.148 292.573 397.796 288.031 412.544C287.195 415.259 289.185 418.57 289.873 421.607C293.491 420.718 298.507 420.779 300.482 418.775C307.991 411.162 314.575 402.913 321.374 394.828C323.009 392.885 324.037 390.601 325.517 388.555C330.621 381.524 332.641 380.901 342.857 383.015C338.559 389.978 334.017 396.839 330.074 403.939C328.062 407.564 326.604 411.531 325.894 415.464C325.494 417.66 327.144 420.109 327.869 422.441C330.355 421.463 333.625 421.012 335.171 419.411C339.854 414.568 344.441 409.541 348.029 404.117C362.381 382.399 376.304 360.49 390.471 338.698C392.143 336.126 394.207 333.705 396.308 331.352C400.902 326.187 406.82 324.443 414.751 326.933C395.183 346.673 379.929 368.281 368.676 391.962C372.819 388.473 376.459 384.397 381.216 381.647C388.547 377.406 396.367 373.541 404.564 370.662C407.538 369.615 413.833 370.853 415.624 372.871C417.451 374.937 416.778 379.704 415.165 382.468C410.549 390.361 402.093 394.951 391.936 396.62C386.676 397.482 384.811 399.561 384.501 403.474C384.441 404.206 384.264 404.931 384.205 405.662C383.546 413.146 387.741 421.046 393.852 422.482C402.492 424.514 407.782 419.65 411.954 414.698C416.482 409.329 420.299 403.446 423.569 397.468C429.658 386.346 437.255 376.483 450.979 370.874C452.754 370.149 454.589 369.335 456.498 369.082C461.558 368.425 466.862 367.789 470.443 371.92C473.787 375.778 472.144 379.766 469.762 383.357C463.215 393.214 452.532 398.549 439.608 400.546C434.4 401.353 432.395 403.351 431.885 407.222C431.737 408.316 431.492 409.404 431.441 410.505C431.204 415.109 430.398 420.129 436.227 422.824C441.983 425.485 447.79 423.536 452.325 420.56C456.742 417.66 460.848 414.055 463.836 410.109C475.481 394.725 482.849 377.871 487.399 360.135C488.213 356.968 488.324 352.802 494.079 353.589C499.709 354.362 500.974 358.698 499.679 362.173C498.015 366.653 494.464 370.648 491.66 374.95C499.125 374.95 507.351 374.95 517.109 374.95C515.215 379.273 513.758 383.165 511.82 386.886C507.44 395.293 502.409 403.487 498.525 412.044C497.26 414.835 497.29 420.3 499.243 421.36C503.941 423.919 507.566 419.746 509.637 416.819C518.47 404.335 526.934 391.668 535.182 378.918C540.879 370.108 542.691 369.184 553.722 370.757C546.176 383.439 538.149 396.387 530.795 409.589C528.606 413.515 525.454 419.233 531.565 422.017C537.017 424.5 541.619 419.828 544.385 416.326C554.055 404.076 564.005 391.866 572.054 378.877C576.596 371.517 581.974 369.266 591.259 370.846ZM544.334 440C543.956 439.329 543.579 438.652 543.209 437.982C529.116 441.922 514.801 445.397 501.026 449.98C493.369 452.524 487.621 457.723 485.009 464.59C482.561 471.027 486.356 475.39 494.353 474.788C498.599 474.474 503.12 473.4 506.804 471.635C522.798 463.961 534.339 452.572 544.334 440ZM434.74 396.558C435.221 397.092 435.702 397.632 436.183 398.166C449.137 397.831 463.126 389.233 466.211 379.308C466.84 377.283 465.782 374.889 465.501 372.673C462.919 373.254 459.457 373.158 457.911 374.54C449.921 381.667 442.419 389.178 434.74 396.558Z" fill="black"/>
<path d="M226.46 307.978C215.548 307.349 206.182 306.254 196.831 306.371C171.493 306.685 146.303 308.238 123.45 318.71C112.213 323.861 102.832 330.763 96.9729 340.476C91.8091 349.039 92.5193 357.323 98.7558 362.542C105.54 368.212 118.405 369.607 127.889 365.538C134.843 362.555 139.718 357.931 142.537 351.851C143.129 350.578 143.743 349.306 144.35 348.041C144.919 348.054 145.489 348.068 146.058 348.089C146.236 349.593 146.88 351.18 146.517 352.589C143.033 366.112 123.672 375.039 106.968 370.941C88.5244 366.42 80.3053 353.335 86.9856 338.772C93.3257 324.955 106.612 316.918 121.971 310.885C137.647 304.729 154.566 302.315 171.633 302.109C189.048 301.897 206.507 303.074 223.9 304.114C228.494 304.387 232.252 304.647 236.084 301.966C238.622 300.194 242.21 299.462 245.332 298.265C245.702 298.683 246.079 299.093 246.449 299.51C243.934 301.46 241.418 303.409 238.193 305.919C242.55 307.212 246.338 308.033 249.785 309.421C257.109 312.376 264.848 314.962 271.358 318.902C286.102 327.821 286.531 342.165 272.993 352.418C263.043 359.956 250.592 362.357 236.114 363.903C238.829 365.011 240.286 365.544 241.67 366.181C248.032 369.108 254.875 371.523 260.638 375.121C274.753 383.931 276.973 399.615 266.164 411.277C254.335 424.041 237.542 429.472 219.18 431.736C195.506 434.657 173.017 429.712 151.045 423.029C146.702 421.709 143.676 421.654 139.593 423.843C124.479 431.941 107.9 434.848 90.1002 431.681C87.1114 431.148 84.1374 430.245 81.415 429.089C74.5571 426.182 70.3551 421.565 70.9839 414.985C71.6053 408.473 76.5323 404.287 83.6418 402.03C94.4502 398.603 105.052 400.155 115.224 403.917C121.675 406.305 128.148 408.87 134 412.119C139.615 415.231 143.173 414.143 146.48 409.944C152.879 401.811 159.663 393.869 165.663 385.545C179.497 366.358 192.614 346.803 206.766 327.787C211.782 321.022 218.98 315.386 226.46 307.978ZM149.476 418.234C168.548 424.67 187.605 428.685 207.543 428.077C223.589 427.591 237.764 422.523 248.646 412.365C265.033 397.064 260.401 380.032 237.623 372.214C229.678 369.484 221.266 367.692 213.151 365.285C210.073 364.375 207.21 362.945 204.258 361.748C204.421 361.003 204.584 360.25 204.747 359.505C208.039 359.163 211.331 358.54 214.623 358.554C219.927 358.574 225.224 359.245 230.528 359.252C247.166 359.279 259.181 352.446 267.348 340.941C273.022 332.951 271.173 324.784 261.97 319.552C255.719 315.995 248.121 314.066 241.13 311.405C237.261 309.934 234.671 310.79 232.415 313.888C224.521 324.723 216.273 335.373 208.327 346.18C190.298 370.716 175.354 396.968 149.476 418.234ZM135.42 418.535C135.605 417.864 135.783 417.201 135.968 416.531C123.435 412.803 111.133 408.377 98.2972 405.607C90.2482 403.87 83.3755 408.603 82.3397 414.226C81.341 419.663 86.3716 425.778 94.0211 427.112C109.461 429.814 123.103 426.045 135.42 418.535Z" fill="black"/>
<path d="M319.944 508.51C319.655 506.649 319.137 504.789 319.123 502.928C319.034 492.832 319.034 482.737 319.093 472.647C319.115 469.453 318.538 466.293 313.951 466.19C308.921 466.081 308.255 469.419 308.262 472.805C308.277 482.901 308.292 492.997 308.203 503.086C308.188 504.898 307.671 506.711 307.382 508.524C306.672 508.524 305.969 508.524 305.259 508.524C304.918 506.752 304.304 504.98 304.29 503.202C304.193 493.106 304.193 483.01 304.282 472.921C304.312 469.508 303.727 466.177 298.763 466.204C293.748 466.238 293.37 469.686 293.385 473.024C293.437 483.12 293.459 493.216 293.355 503.305C293.333 505.063 292.638 506.814 292.253 508.572C291.55 508.551 290.848 508.53 290.145 508.51C289.871 506.875 289.361 505.24 289.353 503.606C289.287 493.325 289.287 483.051 289.346 472.77C289.398 463.817 294.302 461.088 304.563 464.001C305.895 464.378 307.774 463.933 309.202 463.461C316.082 461.183 322.659 463.557 322.984 469.542C323.658 481.991 323.28 494.481 323.236 506.95C323.236 507.484 322.281 508.018 321.771 508.558C321.157 508.551 320.55 508.53 319.944 508.51Z" fill="black"/>
<path d="M341.37 507.84C341.37 515.514 341.37 522.649 341.37 529.79C340.697 529.865 340.031 529.94 339.358 530.015C338.862 528.859 337.952 527.703 337.945 526.541C337.878 508.038 337.841 489.536 337.996 471.033C338.041 465.773 341.57 462.784 347.037 462.62C352.77 462.449 356.869 465.554 357.002 470.876C357.239 480.767 357.29 490.664 356.965 500.555C356.758 506.875 351.527 509.468 341.37 507.84ZM353.007 486.109C352.985 486.109 352.963 486.109 352.948 486.109C352.948 481.348 353.503 476.526 352.696 471.868C352.341 469.788 349.256 468.03 347.407 466.129C345.653 468.078 342.517 469.966 342.383 471.991C341.806 480.931 342.139 489.912 342.043 498.879C342.006 502.183 343.027 505.042 347.562 505.015C352.171 504.987 352.977 501.903 353 498.742C353.022 494.522 353.007 490.315 353.007 486.109Z" fill="black"/>
<path d="M442.595 516.116C442.884 517.929 442.662 519.947 443.587 521.5C444.704 523.367 446.79 524.831 448.462 526.472C450.341 524.803 453.455 523.305 453.84 521.431C454.669 517.341 454.092 513.059 454.092 509.851C449.35 508.298 444.045 507.854 441.685 505.432C439.325 503.004 439.407 498.619 439.288 495.069C438.985 486.095 439.111 477.107 439.2 468.119C439.214 466.327 439.828 464.535 440.161 462.743C440.886 462.736 441.611 462.73 442.336 462.723C442.691 464.481 443.335 466.238 443.35 468.003C443.439 478.086 443.394 488.168 443.35 498.25C443.335 501.554 443.601 505.063 448.706 505.036C453.729 505.015 454.143 501.533 454.136 498.216C454.099 488.134 454.047 478.051 454.136 467.969C454.151 466.211 454.802 464.453 455.157 462.702C455.875 462.709 456.592 462.709 457.31 462.716C457.643 464.152 458.257 465.595 458.257 467.032C458.323 485.001 458.279 502.963 458.316 520.932C458.323 525.022 456.57 528.648 451.68 529.332C448.499 529.776 443.942 528.832 441.663 527.047C438.009 524.181 438.105 520.015 440.243 516.267C441.034 516.212 441.811 516.164 442.595 516.116Z" fill="black"/>
<path d="M274.703 485.67C274.703 490.629 274.881 495.588 274.651 500.541C274.422 505.452 270.375 508.886 265.145 508.626C259.486 508.345 255.986 505.678 255.868 500.931C255.616 490.841 255.52 480.739 255.794 470.643C255.927 465.499 259.892 462.537 265.337 462.585C270.775 462.633 274.429 465.684 274.659 470.8C274.881 475.752 274.703 480.711 274.703 485.67ZM259.841 485.404C259.841 490.164 259.352 494.973 260.07 499.652C260.373 501.621 263.214 503.325 264.908 505.151C266.839 503.29 270.324 501.498 270.442 499.563C271.026 490.253 270.982 480.896 270.464 471.587C270.361 469.699 267.239 467.934 265.507 466.108C263.614 467.968 260.469 469.664 260.092 471.71C259.264 476.183 259.841 480.827 259.841 485.404Z" fill="black"/>
<path d="M406.457 508.557C406.087 506.964 405.413 505.37 405.399 503.776C405.31 493.318 405.31 482.852 405.391 472.394C405.443 466.121 408.942 462.653 414.979 462.633C421.016 462.606 424.715 466.203 424.744 472.284C424.796 482.743 424.826 493.208 424.7 503.667C424.678 505.342 423.834 507.011 423.368 508.687C422.643 508.639 421.926 508.585 421.201 508.537C420.971 506.683 420.557 504.836 420.55 502.983C420.505 493.625 420.572 484.261 420.587 474.904C420.587 473.803 421.06 472.401 420.424 471.662C418.722 469.671 416.547 467.968 414.557 466.149C412.908 468.043 409.948 469.883 409.837 471.84C409.32 481.183 409.608 490.554 409.527 499.911C409.504 502.723 409.238 505.527 409.083 508.338C408.217 508.4 407.337 508.482 406.457 508.557Z" fill="black"/>
<path d="M386.551 484.016C386.551 479.994 387.061 475.917 386.344 471.991C385.959 469.891 383.444 468.058 381.89 466.109C379.863 467.463 377.792 468.783 375.824 470.192C375.069 470.732 374.544 471.499 373.915 472.162C373.242 472.025 372.561 471.888 371.888 471.758C372.376 469.823 372.088 467.011 373.523 466.129C376.246 464.446 380.314 462.606 383.163 463.16C385.996 463.714 389.599 466.902 390.087 469.323C391.167 474.679 390.524 480.268 390.538 485.767C390.553 490.897 390.649 496.034 390.428 501.157C390.228 505.699 387.01 508.196 381.654 508.572C376.475 508.934 372.354 505.938 371.755 501.506C371.511 499.693 371.607 497.847 371.622 496.013C371.703 485.589 373.937 483.749 386.551 484.016ZM375.868 495.993C375.839 495.993 375.816 495.993 375.787 495.993C375.787 497.279 375.232 498.832 375.905 499.789C377.289 501.752 379.331 503.394 381.106 505.172C382.911 503.414 385.574 501.869 386.292 499.844C387.187 497.313 387.113 494.249 386.24 491.704C385.678 490.056 382.956 487.894 381.15 487.86C379.419 487.833 377.215 490.042 376.016 491.67C375.225 492.737 375.868 494.522 375.868 495.993Z" fill="black"/>
<path d="M238.71 498.024C242.513 502.443 240.116 504.885 237.253 506.855C233.613 509.358 229.345 509.509 225.697 506.964C223.981 505.767 222.22 503.66 222.169 501.93C221.836 491.109 221.651 480.267 222.132 469.453C222.316 465.178 226.03 462.579 231.608 462.654C236.831 462.722 239.761 465.157 240.737 469.214C240.945 470.075 240.116 471.108 239.236 473.502C237.726 471.204 237.253 469.863 236.202 469.022C234.738 467.852 232.592 466.081 231.187 466.334C229.271 466.676 226.393 468.639 226.341 469.966C225.942 480.404 225.942 490.869 226.341 501.307C226.393 502.634 229.3 504.591 231.216 504.919C232.622 505.158 234.752 503.373 236.21 502.19C237.179 501.41 237.519 500.097 238.71 498.024Z" fill="black"/>
<path d="M371.58 563.682C365.802 564.147 359.921 564.653 359.891 558.572C359.876 556.383 362.665 553.257 365.173 552.211C368.798 550.692 373.356 552.136 374.066 555.651C374.902 559.81 374.524 564.311 373.459 568.456C373.074 569.94 369.279 571.459 366.838 571.733C364.974 571.945 362.577 570.44 360.868 569.256C360.291 568.86 361.082 567.102 361.252 565.966C362.332 566.219 363.723 566.213 364.426 566.787C365.536 567.69 366.194 568.983 367.038 570.105C368.51 568.675 370.034 567.28 371.402 565.782C371.713 565.426 371.506 564.742 371.58 563.682ZM366.616 563.436C369.042 561.288 371.661 559.899 371.447 558.948C371.047 557.129 369.028 555.556 367.681 553.887C366.128 555.152 363.627 556.281 363.302 557.738C362.991 559.106 364.988 560.829 366.616 563.436Z" fill="black"/>
<path d="M388.293 572.027C379.763 571.952 377.181 568.272 380.051 563.217C380.813 561.876 380.244 560.057 380.576 558.497C380.991 556.548 381.168 553.333 382.396 552.991C385.193 552.204 388.825 552.286 391.577 553.169C392.717 553.538 392.591 556.856 392.828 558.846C392.998 560.221 392.665 561.644 392.82 563.019C393.049 565.05 394.559 567.547 393.612 568.963C392.472 570.673 389.328 571.48 388.293 572.027ZM386.021 560.802C382.263 564.599 380.636 567.232 384.571 569.38C385.755 570.023 388.552 568.634 390.616 568.176C389.24 565.98 387.878 563.785 386.021 560.802ZM386.702 560.515C387.812 560.248 388.929 559.982 390.038 559.722C389.565 557.875 389.099 556.021 388.625 554.174C386.902 554.489 385.178 554.81 383.454 555.125C384.534 556.917 385.615 558.716 386.702 560.515Z" fill="black"/>
<path d="M409.897 558.19C409.32 556.76 408.736 555.324 407.486 552.239C404.837 555.207 403.062 557.205 400.243 560.358C403.757 560.002 405.555 559.339 406.568 559.818C409.195 561.049 412.709 562.437 413.53 564.428C414.24 566.152 412.435 569.859 410.474 570.734C408.122 571.788 403.676 571.692 401.449 570.461C395.797 567.349 397.461 554.694 403.72 552.622C406.028 551.863 409.476 552.807 412.05 553.689C412.805 553.949 412.339 556.658 412.435 558.244C411.592 558.231 410.748 558.21 409.897 558.19ZM405 570.509C405.755 570.516 406.509 570.522 407.256 570.529C408.314 568.99 410.364 567.349 410.156 565.933C409.934 564.448 407.56 563.176 406.124 561.815C404.711 562.944 402.115 564.093 402.144 565.194C402.189 566.986 403.957 568.737 405 570.509Z" fill="black"/>
<path d="M267.194 552.198C282.649 551.391 282.649 551.391 283.233 555.153C280.133 554.674 276.974 554.182 272.513 553.491C272.943 556.343 273.238 558.327 273.542 560.311C275.436 560.03 277.33 559.75 279.719 559.401C279.815 560.577 279.948 562.274 280.089 564.032C277.662 563.71 275.613 563.436 273.564 563.17C273.179 565.181 272.795 567.185 272.225 570.16C276.893 569.64 280.318 569.257 283.544 568.895C281.916 572.226 278.987 572.712 267.727 571.33C270.191 564.982 270.849 558.724 267.194 552.198Z" fill="black"/>
<path d="M288.906 565.317C290.416 567.39 290.971 569.107 291.94 569.284C293.774 569.626 296.097 569.462 297.703 568.737C298.332 568.45 298.243 565.502 297.318 564.763C295.313 563.156 292.102 562.533 290.253 560.851C288.722 559.462 287.279 556.774 287.923 555.303C288.603 553.751 291.732 552.157 293.915 552.034C296.401 551.89 299.086 553.231 301.498 554.236C301.853 554.38 301.165 556.247 300.751 558.388C299.027 556.712 298.391 555.488 297.444 555.296C295.52 554.913 293.427 555.084 291.407 555.03C291.954 556.377 292.051 558.135 293.16 558.976C295.239 560.55 298.472 561.22 300.144 562.971C301.505 564.394 302.489 567.65 301.498 568.682C299.878 570.372 296.586 571.583 293.885 571.747C291.71 571.877 289.313 570.242 287.19 569.155C286.99 569.045 287.996 567.308 288.906 565.317Z" fill="black"/>
<path d="M323.372 555.317C321.374 554.831 319.222 554.312 316.085 553.552C316.543 560.037 314.124 565.844 318.252 571.555C315.73 571.555 313.362 571.555 311.809 571.555C312.186 565.906 312.571 560.201 313.022 553.525C309.567 554.298 307.451 554.777 305.469 555.221C305.543 551.993 305.543 551.993 311.069 551.972C323.239 551.924 323.239 551.924 323.372 555.317Z" fill="black"/>
<path d="M343.582 571.527C351.35 567.259 346.66 561.691 348.576 556.746C346.415 556.616 344.847 556.52 341.474 556.315C345.284 554.352 347.806 553.052 350.425 551.705C354.065 558.36 347.562 565.864 355.234 571.527C351.557 571.527 348.117 571.527 343.582 571.527Z" fill="black"/>
<path d="M254.861 42.2692C262.606 42.2692 270.359 42.2692 278.105 42.2692C278.105 42.748 278.105 43.22 278.105 43.6988C270.3 43.6988 262.503 43.6988 254.698 43.6988C254.757 43.22 254.809 42.7411 254.861 42.2692Z" fill="black"/>
<path d="M296.896 42.2751C304.753 42.2751 312.617 42.2751 320.474 42.2751C320.474 42.754 320.474 43.2328 320.481 43.7047C312.625 43.7047 304.761 43.7047 296.904 43.7047C296.904 43.2328 296.904 42.754 296.896 42.2751Z" fill="black"/>
<path d="M339.366 42.2072C347.126 42.2072 354.894 42.2072 362.655 42.2072C362.669 42.6997 362.677 43.1922 362.692 43.6847C354.975 45.3879 347.156 44.1224 339.395 44.4918C339.388 43.7326 339.373 42.9665 339.366 42.2072Z" fill="black"/>
<path d="M508.715 42.3506C516.512 42.3506 524.317 42.3506 532.115 42.3506C532.1 42.8226 532.085 43.2877 532.07 43.7596C524.206 43.7596 516.349 43.7596 508.485 43.7596C508.559 43.2877 508.633 42.8226 508.715 42.3506Z" fill="black"/>
<path d="M636.219 93.1785C636.219 99.6629 636.219 106.147 636.219 112.632C635.708 112.645 635.198 112.659 634.688 112.666C634.688 106.182 634.688 99.6972 634.688 93.2128C635.198 93.2059 635.708 93.1922 636.219 93.1785Z" fill="black"/>
<path d="M634.487 148.502C634.487 141.135 634.487 134.678 634.487 127.633C638.171 131.484 638.305 143.912 634.487 148.502Z" fill="black"/>
<path d="M636.233 268.559C636.233 275.037 636.233 281.514 636.233 287.992C635.641 287.999 635.049 288.005 634.457 288.012C634.457 281.583 634.457 275.153 634.457 268.723C635.049 268.675 635.641 268.614 636.233 268.559Z" fill="black"/>
<path d="M636.422 303.602C636.422 310.127 636.422 316.653 636.422 323.178C635.837 323.192 635.26 323.199 634.676 323.212C634.676 316.728 634.676 310.237 634.676 303.752C635.253 303.704 635.837 303.65 636.422 303.602Z" fill="black"/>
<path d="M636.316 338.923C636.316 345.332 636.316 351.741 636.316 358.151C635.746 358.137 635.184 358.123 634.614 358.11C634.614 351.612 634.614 345.113 634.614 338.608C635.184 338.711 635.746 338.814 636.316 338.923Z" fill="black"/>
<path d="M636.26 373.712C636.26 380.23 636.26 386.749 636.26 393.268C635.683 393.268 635.106 393.274 634.529 393.274C634.529 386.756 634.529 380.237 634.529 373.719C635.099 373.719 635.683 373.719 636.26 373.712Z" fill="black"/>
<path d="M85.2288 42.3234C93.115 42.3234 101.009 42.3234 108.895 42.3234C108.888 42.7612 108.873 43.2058 108.865 43.6436C100.979 43.6436 93.0855 43.6436 85.1992 43.6436C85.214 43.2058 85.2214 42.768 85.2288 42.3234Z" fill="black"/>
<path d="M212.629 42.2344C220.36 42.2344 228.091 42.2344 235.815 42.2344C235.822 42.7063 235.829 43.1783 235.837 43.6503C228.084 43.6503 220.331 43.6503 212.578 43.6503C212.6 43.1783 212.615 42.7063 212.629 42.2344Z" fill="black"/>
<path d="M636.315 233.49C636.315 239.961 636.315 246.439 636.315 252.916C635.723 252.923 635.139 252.923 634.547 252.93C634.547 246.5 634.547 240.071 634.547 233.648C635.131 233.593 635.723 233.538 636.315 233.49Z" fill="black"/>
<path d="M634.481 428.207C634.481 421.77 634.481 415.334 634.481 408.904C635.066 408.897 635.65 408.897 636.227 408.89C636.227 415.347 636.227 421.805 636.227 428.262C635.643 428.241 635.066 428.221 634.481 428.207Z" fill="black"/>
<path d="M634.529 463.44C634.529 456.956 634.529 450.465 634.529 443.98C635.114 443.98 635.698 443.98 636.275 443.98C636.275 450.465 636.275 456.956 636.275 463.44C635.698 463.44 635.114 463.44 634.529 463.44Z" fill="black"/>
<path d="M550.809 42.3506C558.658 42.3506 566.507 42.3506 574.357 42.3506C574.357 42.8294 574.357 43.315 574.349 43.7938C566.493 43.7938 558.636 43.7938 550.779 43.7938C550.794 43.315 550.802 42.8362 550.809 42.3506Z" fill="black"/>
<path d="M634.457 217.663C634.457 211.247 634.457 204.824 634.457 198.408C635.034 198.401 635.618 198.394 636.196 198.387C636.196 204.83 636.196 211.274 636.196 217.71C635.618 217.697 635.041 217.683 634.457 217.663Z" fill="black"/>
<path d="M634.59 183.893C634.59 176.259 634.59 169.823 634.59 163.195C638.015 166.027 638.415 178.27 634.59 183.893Z" fill="black"/>
<path d="M489.788 43.6903C481.991 43.6903 474.193 43.6903 466.396 43.6903C466.388 43.2525 466.374 42.8216 466.366 42.3838C474.164 42.3838 481.961 42.3838 489.759 42.3838C489.766 42.8216 489.773 43.2525 489.788 43.6903Z" fill="black"/>
<path d="M127.716 42.3718C135.513 42.3718 143.31 42.3718 151.108 42.3718C151.101 42.8164 151.093 43.2678 151.086 43.7124C143.288 43.7124 135.491 43.7124 127.693 43.7124C127.701 43.2678 127.708 42.8164 127.716 42.3718Z" fill="black"/>
<path d="M447.353 43.7193C439.556 43.7193 431.758 43.7193 423.953 43.7193C423.946 43.2678 423.939 42.8232 423.931 42.3718C431.729 42.3718 439.533 42.3718 447.331 42.3718C447.338 42.8232 447.346 43.2747 447.353 43.7193Z" fill="black"/>
<path d="M381.761 42.343C389.477 42.343 397.193 42.343 404.902 42.343C404.902 42.8218 404.902 43.3075 404.902 43.7863C397.119 43.7863 389.329 43.7863 381.546 43.7863C381.62 43.3075 381.687 42.8287 381.761 42.343Z" fill="black"/>
<path d="M168.888 42.2751C177.795 42.2751 185.519 42.2751 193.634 42.2751C189.669 45.1069 174.747 45.3464 168.888 42.2751Z" fill="black"/>
<path d="M581.292 527.861C574.412 531.158 567.525 534.455 560.645 537.745C560.09 536.979 559.528 536.206 558.973 535.44C565.838 532.108 572.696 528.784 579.561 525.453C580.138 526.26 580.715 527.061 581.292 527.861Z" fill="black"/>
<path d="M508.157 563.162C501.321 566.507 494.493 569.852 487.657 573.196C487.08 572.382 486.503 571.575 485.926 570.761C492.784 567.451 499.642 564.14 506.5 560.829C507.054 561.609 507.602 562.382 508.157 563.162Z" fill="black"/>
<path d="M617.218 49.1286C607.918 46.974 600.417 45.2366 592.73 43.4581C598.005 40.4895 610.13 42.9041 617.218 49.1286Z" fill="black"/>
<path d="M64.047 47.1862C60.4812 50.3942 55.2064 55.1344 50.5975 59.2795C50.1093 55.7774 58.7279 48.3148 64.047 47.1862Z" fill="black"/>
<path d="M191.283 569.435C198.215 572.732 205.154 576.029 212.086 579.326C211.531 580.147 210.976 580.967 210.429 581.788C203.549 578.478 196.676 575.174 189.796 571.863C190.292 571.049 190.787 570.242 191.283 569.435Z" fill="black"/>
<path d="M283.286 617.159C276.458 613.807 269.622 610.448 262.793 607.097C263.319 606.338 263.837 605.578 264.362 604.819C271.257 608.095 278.144 611.379 285.039 614.655C284.455 615.49 283.87 616.324 283.286 617.159Z" fill="black"/>
<path d="M449.848 588.84C455.958 584.578 463.186 581.828 470.066 578.593C470.599 579.318 471.139 580.036 471.672 580.761C464.888 584.113 458.096 587.458 451.312 590.81C450.824 590.146 450.336 589.489 449.848 588.84Z" fill="black"/>
<path d="M618.289 509.98C610.61 513.64 603.908 516.827 596.11 520.548C598.47 515.014 613.399 508.106 618.289 509.98Z" fill="black"/>
<path d="M628.789 498.147C630.927 491.396 632.91 485.157 634.966 478.646C638.71 483.441 635.336 494.508 628.789 498.147Z" fill="black"/>
<path d="M155.122 551.78C161.854 555.111 168.586 558.442 175.318 561.773C174.786 562.526 174.253 563.271 173.72 564.024C166.907 560.734 160.086 557.437 153.272 554.147C153.886 553.353 154.501 552.567 155.122 551.78Z" fill="black"/>
<path d="M522.66 552.991C529.481 549.701 536.302 546.418 543.13 543.128C543.67 543.907 544.218 544.687 544.758 545.467C537.93 548.743 531.094 552.02 524.266 555.296C523.733 554.53 523.193 553.757 522.66 552.991Z" fill="black"/>
<path d="M118.25 534.051C125.071 537.328 131.892 540.604 138.712 543.88C138.187 544.667 137.662 545.447 137.137 546.233C130.331 542.984 123.524 539.735 116.718 536.493C117.236 535.672 117.739 534.858 118.25 534.051Z" fill="black"/>
<path d="M635.066 77.9941C632.677 71.5234 630.383 65.3331 627.949 58.7529C634.504 61.7489 638.366 72.44 635.066 77.9941Z" fill="black"/>
<path d="M81.8364 516.342C88.6721 519.632 95.5079 522.929 103.424 526.739C97.3943 527.888 83.6267 521.492 81.8364 516.342Z" fill="black"/>
<path d="M319.698 634.724C312.936 631.379 306.182 628.041 299.42 624.696C299.953 623.964 300.478 623.232 301.011 622.507C307.868 625.825 314.726 629.149 321.577 632.466C320.955 633.212 320.327 633.971 319.698 634.724Z" fill="black"/>
<path d="M337.157 637.432C346.094 635.544 353.499 633.985 361.26 632.343C357.901 637.206 346.353 639.894 337.157 637.432Z" fill="black"/>
<path d="M246.921 599.381C240.055 596.104 233.19 592.821 226.325 589.545C226.865 588.779 227.397 588.006 227.937 587.24C234.818 590.502 241.69 593.758 248.57 597.021C248.016 597.808 247.468 598.594 246.921 599.381Z" fill="black"/>
<path d="M434.986 598.486C428.202 601.837 421.418 605.189 414.634 608.547C415.774 603.978 428.72 597.535 434.986 598.486Z" fill="black"/>
<path d="M398.442 616.345C391.68 619.594 384.911 622.843 378.149 626.092C377.75 625.531 377.357 624.97 376.958 624.402C382.832 619.806 389.993 616.988 397.325 614.395C397.694 615.052 398.064 615.695 398.442 616.345Z" fill="black"/>
<path d="M48.5728 494.262C54.8758 499.98 60.1358 504.748 65.9432 510.028C58.1458 509.077 50.0449 501.875 48.5728 494.262Z" fill="black"/>
<path d="M45.601 215.657C45.601 222.039 45.601 228.421 45.601 234.81C45.0462 234.81 44.4987 234.803 43.9438 234.803C43.9438 228.414 43.9438 222.019 43.9438 215.63C44.4987 215.637 45.0462 215.644 45.601 215.657Z" fill="black"/>
<path d="M43.8706 269.989C43.8706 263.532 43.8706 257.068 43.8706 250.611C44.3589 250.584 44.8397 250.563 45.328 250.536C45.328 256.959 45.328 263.381 45.328 269.804C44.8397 269.866 44.3515 269.927 43.8706 269.989Z" fill="black"/>
<path d="M43.7075 445.355C43.7075 438.953 43.7075 432.544 43.7075 426.141C44.255 426.128 44.8098 426.114 45.3573 426.1C45.3573 432.496 45.3573 438.884 45.3573 445.28C44.8098 445.307 44.255 445.335 43.7075 445.355Z" fill="black"/>
<path d="M45.8277 461.184C45.8277 467.566 45.8277 473.947 45.8277 480.883C42.4542 477.525 42.0695 466.43 45.8277 461.184Z" fill="black"/>
<path d="M43.937 410.314C43.937 403.932 43.937 397.55 43.937 391.169C44.4549 391.155 44.9653 391.134 45.4832 391.121C45.4832 397.503 45.4832 403.884 45.4832 410.273C44.9727 410.287 44.4549 410.3 43.937 410.314Z" fill="black"/>
<path d="M43.9131 339.943C43.9131 333.568 43.9131 327.193 43.9131 320.811C44.4383 320.798 44.971 320.784 45.4963 320.763C45.4963 327.138 45.4963 333.513 45.4963 339.888C44.971 339.909 44.4457 339.929 43.9131 339.943Z" fill="black"/>
<path d="M43.9541 94.3216C43.9541 87.9398 43.9541 81.5579 43.9541 75.1761C44.4498 75.1556 44.9454 75.1351 45.4411 75.1146C45.4411 81.4964 45.4411 87.885 45.4411 94.2668C44.9454 94.2805 44.4498 94.3011 43.9541 94.3216Z" fill="black"/>
<path d="M43.9243 129.467C43.9243 123.092 43.9243 116.723 43.9243 110.348C44.4718 110.342 45.0192 110.335 45.5592 110.328C45.5592 116.689 45.5592 123.057 45.5592 129.419C45.0118 129.439 44.4644 129.453 43.9243 129.467Z" fill="black"/>
<path d="M45.793 145.533C45.793 151.894 45.793 158.262 45.793 164.623C45.253 164.623 44.7056 164.616 44.1655 164.616C44.1655 158.248 44.1655 151.873 44.1655 145.505C44.7056 145.519 45.253 145.526 45.793 145.533Z" fill="black"/>
<path d="M43.9609 375.169C43.9609 368.787 43.9609 362.405 43.9609 356.024C44.501 356.017 45.041 356.017 45.5811 356.01C45.5811 362.392 45.5811 368.767 45.5811 375.149C45.041 375.162 44.501 375.162 43.9609 375.169Z" fill="black"/>
<path d="M43.9243 304.812C43.9243 298.417 43.9243 292.028 43.9243 285.632C44.4496 285.619 44.9748 285.605 45.5001 285.585C45.5001 291.98 45.5001 298.376 45.5001 304.771C44.9748 304.785 44.4496 304.798 43.9243 304.812Z" fill="black"/>
<path d="M45.8059 180.684C45.8059 187.052 45.8059 193.42 45.8059 199.795C45.2733 199.809 44.7407 199.829 44.208 199.843C44.208 193.461 44.208 187.086 44.208 180.704C44.7407 180.704 45.2733 180.691 45.8059 180.684Z" fill="black"/>
<path d="M409.157 243.387C414.084 235.966 419.019 228.538 423.946 221.116C424.582 221.438 425.218 221.759 425.855 222.081C422.577 230.371 416.112 236.992 409.032 243.292L409.157 243.387Z" fill="black"/>
</svg>
