<svg width="37" height="37" viewBox="0 0 37 37" fill="none" xmlns="http://www.w3.org/2000/svg">
<circle cx="18.5" cy="18.5" r="18.5" fill="#FFF5E5"/>
<path d="M6.97781 30V13.0909H12.361V30H6.97781ZM9.67489 11.1204C8.91897 11.1204 8.26947 10.8709 7.72639 10.3718C7.1833 9.86541 6.91175 9.25627 6.91175 8.54439C6.91175 7.83984 7.1833 7.23804 7.72639 6.73899C8.26947 6.2326 8.91897 5.9794 9.67489 5.9794C10.4382 5.9794 11.0877 6.2326 11.6234 6.73899C12.1665 7.23804 12.438 7.83984 12.438 8.54439C12.438 9.25627 12.1665 9.86541 11.6234 10.3718C11.0877 10.8709 10.4382 11.1204 9.67489 11.1204ZM21.1705 20.3565V30H15.7874V13.0909H20.9063V16.1953H21.0935C21.4678 15.1605 22.1063 14.3495 23.009 13.7624C23.9117 13.168 24.9868 12.8707 26.2345 12.8707C27.4234 12.8707 28.4545 13.1386 29.3279 13.6744C30.2085 14.2028 30.8911 14.944 31.3754 15.8981C31.8672 16.8448 32.1093 17.953 32.102 19.2227V30H26.7188V20.2795C26.7262 19.3401 26.4877 18.6062 26.0033 18.0778C25.5262 17.5494 24.8621 17.2852 24.0107 17.2852C23.4456 17.2852 22.9466 17.4099 22.5136 17.6594C22.0879 17.9016 21.7577 18.2502 21.5228 18.7053C21.2953 19.1603 21.1779 19.7107 21.1705 20.3565Z" fill="#576F72"/>
</svg>
